<svg width="300" height="300" xmlns="http://www.w3.org/2000/svg">
    <metadata id="metadata7">image/svg+xml</metadata>

    <text x="80" y="150" className="text">
        北投區
    </text>
    <path
        id="北投區"
        className="beitou"
        d="m94.88095,249.57284c-14.1957,-1.13845 -15.68038,-2.82136 -15.75883,-17.86287c-0.07358,-14.11027 -2.04541,-18.8162 -9.28243,-22.15316c-4.82518,-2.22489 -5.16577,-2.22824 -13.81468,-0.13606c-4.87713,1.17982 -11.85611,3.38716 -15.50881,4.90525c-9.44781,3.92657 -14.35485,4.579 -18.63773,2.47804c-5.19239,-2.54712 -13.07369,-8.67732 -12.20772,-9.49537c0.40554,-0.38307 -0.17773,-1.56086 -1.29605,-2.61731c-1.18816,-1.12239 -2.03333,-3.87056 -2.03333,-6.6113c0,-4.27472 0.33791,-4.75432 3.81225,-5.41074c4.00852,-0.75734 6.59228,-3.8596 6.0592,-7.27516c-0.86533,-5.54445 1.89092,-11.65039 8.44006,-18.6972c3.74333,-4.02781 6.8061,-7.73328 6.8061,-8.23434c0,-1.12665 6.94872,-8.91563 14.29934,-16.02848c3.03443,-2.93632 5.9003,-6.53997 6.36855,-8.00813c0.55205,-1.73101 1.837,-2.66938 3.65524,-2.66938c3.08906,0 5.81801,-2.02917 5.81801,-4.32607c0,-4.75592 16.32824,-25.33368 20.102,-25.33368c0.57926,0 1.69106,-1.82586 2.47069,-4.05746c0.77968,-2.2316 2.17721,-4.65307 3.10574,-5.38102c0.92852,-0.72798 2.05549,-3.1731 2.50442,-5.43366c0.84284,-4.24431 2.34543,-5.20858 4.09367,-2.6271c0.55236,0.81564 3.4755,2.67571 6.49581,4.13348c5.18297,2.50158 5.68533,2.54236 8.94118,0.7255c3.18389,-1.7767 3.91413,-1.77551 9.47807,0.01542c3.31565,1.06721 6.17961,1.79757 6.36444,1.62296c1.93877,-1.8315 5.51741,-12.89401 5.51741,-17.05579c0,-3.8645 0.86996,-6.39702 3.18051,-9.25867c2.84029,-3.51776 4.0477,-4.02687 11.28738,-4.75926c7.04049,-0.71226 8.45062,-1.27612 10.71971,-4.28645c1.90061,-2.52147 3.6472,-3.46632 6.40759,-3.46632c4.7598,0 8.49441,-3.98187 8.5512,-9.11728c0.02297,-2.07819 0.56574,-5.08038 1.20613,-6.67154c1.34999,-3.35431 9.40282,-8.45955 11.91011,-7.55065c0.93927,0.34048 2.96771,-0.21461 4.50764,-1.23354c2.39634,-1.58558 2.70729,-2.62847 2.15755,-7.23596c-0.45066,-3.77701 -0.10046,-5.89525 1.17362,-7.09882c0.99872,-0.9435 2.12574,-3.17861 2.50427,-4.9669c0.46731,-2.20734 2.07446,-3.8758 5.00456,-5.19576c6.19764,-2.79194 7.31487,-2.47598 8.85697,2.50465c0.75767,2.44693 1.98856,6.05059 2.73555,8.00813c0.74688,1.95755 1.65149,4.96741 2.01017,6.6886c0.48175,2.31116 2.00237,3.63972 5.8156,5.08107c2.92169,1.10436 5.4391,2.94779 5.79853,4.2462c0.34925,1.26204 1.69569,2.61257 2.99189,3.00119c2.01807,0.60511 1.43384,1.52938 -4.06667,6.43369c-6.28882,5.60724 -6.40587,5.83664 -5.59194,10.96359c1.02919,6.48384 -3.7709,18.04195 -7.91845,19.06656c-4.20757,1.0394 -5.90666,6.06375 -4.03176,11.92238c1.99183,6.22401 1.99811,6.90198 0.14757,15.90754c-1.39515,6.78992 -1.8528,7.49666 -5.70684,8.81319c-2.97079,1.01481 -5.12613,3.05609 -7.40731,7.01534c-1.76945,3.07121 -3.2172,6.2358 -3.2172,7.03236c0,0.79658 -1.63825,3.40233 -3.64058,5.79058c-2.62203,3.12738 -3.89756,6.2853 -4.55908,11.28698c-1.09367,8.26882 -4.26332,11.56071 -11.49036,11.93337c-2.79573,0.14415 -6.83909,1.57172 -9.68446,3.41923c-2.68666,1.74445 -5.40879,3.17172 -6.04922,3.17172c-0.64039,0 -3.18028,1.4525 -5.64416,3.22778l-4.47974,3.22781l0.71288,10.39417c0.43684,6.36963 0.22874,10.67676 -0.53748,11.1241c-0.68766,0.4015 -1.76661,2.01282 -2.39763,3.58071c-0.68511,1.70225 -2.16214,2.85073 -3.66625,2.85073c-1.72723,0 -2.75678,1.02545 -3.27568,3.26257c-0.41624,1.79441 -1.63795,4.91375 -2.71496,6.93184c-1.79311,3.35993 -1.773,4.12737 0.23866,9.10334c2.22846,5.51222 1.87498,7.98921 -1.14006,7.98921c-2.45555,0 -5.27858,4.6883 -6.31609,10.48942c-0.50155,2.80438 -1.63247,5.36008 -2.51318,5.67933c-0.88067,0.31925 -2.5851,2.64149 -3.78756,5.16051c-1.79011,3.75015 -3.58226,5.18012 -9.89045,7.89179c-9.25247,3.97729 -7.87652,3.66486 -13.98358,3.1751z"
        strokeMiterlimit="4"
        stroke="#000000"
        fill="#rgba(167, 82, 8, 0.325)"
    />
</svg>