<svg width="300" height="300" xmlns="http://www.w3.org/2000/svg">
    <metadata id="metadata7">image/svg+xml</metadata>

    
    <path
        className="path"
        id="內湖區"
        d="m228.52059,347.73805c-0.06129,-0.81564 -0.03466,-3.88543 0.0594,-6.82175c0.09406,-2.9363 -0.89758,-8.27506 -2.2037,-11.86389l-2.37461,-6.52514l2.92707,-5.93195c3.46184,-7.01564 3.66705,-10.73815 0.94656,-17.16131c-1.55515,-3.67154 -3.57436,-5.59621 -8.87958,-8.46358c-4.8507,-2.6217 -7.47148,-4.97799 -8.92653,-8.02547c-2.80878,-5.88306 -5.25147,-8.46648 -8.00512,-8.46648c-1.43108,0 -2.3171,-0.85343 -2.3171,-2.23197c0,-1.22757 -1.97801,-3.65719 -4.39558,-5.39913c-5.0035,-3.60521 -5.2672,-4.5257 -2.19779,-7.67214c1.20879,-1.23914 3.61066,-4.16074 5.33749,-6.49249c1.72684,-2.33175 4.08563,-4.25423 5.24167,-4.27219c1.15616,-0.01795 5.00444,-0.66556 8.55192,-1.4391c6.58345,-1.43555 7.94759,-2.95817 11.70054,-13.06042c0.41054,-1.10536 3.07339,-2.66833 5.91733,-3.47325c4.41442,-1.2494 5.67708,-1.18098 8.63179,0.46789c3.26115,1.81979 3.58227,1.79767 5.5584,-0.38252c1.15341,-1.27263 2.87421,-2.31388 3.82403,-2.31388c3.07063,0 8.31494,-4.8142 10.76906,-9.88556c1.9647,-4.06022 3.33699,-5.21871 7.6743,-6.47878c4.90133,-1.42396 6.69825,-1.23206 6.9611,0.74354c0.05802,0.43499 0.76433,2.29383 1.56986,4.13073c0.80564,1.83689 1.46461,4.04111 1.46461,4.89827c0,0.89103 4.70615,3.11698 10.98895,5.19757c6.04392,2.00149 14.03936,4.68027 17.76769,5.9528c3.72833,1.27255 8.6171,4.10416 10.86412,6.2925c9.27731,9.03521 12.76514,11.69033 15.35679,11.69033c2.35489,0 2.5748,0.38753 1.59785,2.81502c-1.20176,2.98626 0.8854,10.43441 4.30654,15.36674c1.54398,2.2261 1.56609,3.31069 0.14669,7.21086c-0.91893,2.52488 -2.56865,5.06541 -3.66617,5.64566c-1.09752,0.58026 -2.99314,4.11113 -4.21222,7.84637c-1.21884,3.73526 -2.93876,7.21829 -3.82165,7.7401c-0.94894,0.56094 -1.60514,3.33236 -1.60514,6.78001c0,4.57686 -0.52935,6.09889 -2.4609,7.0754c-1.35346,0.68428 -3.35647,3.02697 -4.45096,5.20598c-1.59045,3.16596 -2.57895,3.85547 -4.92117,3.4325c-2.22655,-0.40206 -3.73813,0.47035 -6.28883,3.6294c-3.83068,4.74438 -9.61188,7.26188 -19.55456,8.51528c-3.79903,0.47893 -7.8176,1.32212 -8.93006,1.87378c-1.69632,0.84113 -2.00024,0.29266 -1.88382,-3.39918c0.1232,-3.9031 -0.23285,-4.44291 -3.14007,-4.76164c-2.72138,-0.29832 -3.66329,0.40803 -5.53832,4.15236c-4.78603,9.5576 -9.34902,12.48797 -26.27704,16.87513c-11.12836,2.88409 -11.96465,2.95199 -12.11284,0.9836z"
        strokeMiterlimit="4"
        stroke="#000000"
        fill="#e5e5e5"
    />
</svg>