<svg width="300" height="300" xmlns="http://www.w3.org/2000/svg">
    <metadata id="metadata7">image/svg+xml</metadata>

    <text x="180" y="200">
        士林區
    </text>
    <path
        className="shilin"
        id="士林區"
        d="m130.67355,292.3904c0,-0.5887 -1.55415,-1.67783 -3.45368,-2.4203c-1.89951,-0.74247 -4.94129,-2.12839 -6.75951,-3.07984c-2.83166,-1.48179 -3.91249,-1.49692 -7.53529,-0.10562c-2.32616,0.89334 -7.05516,1.94269 -10.50884,2.33187l-6.2794,0.70759l-5.02352,-9.7204c-3.46765,-6.70982 -7.47802,-12.09274 -12.94847,-17.38008c-4.35876,-4.21284 -9.69914,-9.77585 -11.86761,-12.36226c-6.54152,-7.80231 -16.98514,-11.61879 -36.01762,-13.16208c-17.07093,-1.38422 -18.77023,-2.04314 -25.89346,-10.04019l-3.39462,-3.81101l2.2973,-4.98435c4.42748,-9.60625 4.51493,-9.64575 10.05679,-4.54181c6.40893,5.90252 11.82541,7.65801 18.61141,6.03202c5.26124,-1.26064 10.93347,-3.52615 12.06076,-4.81708c1.40471,-1.60863 19.14964,-5.99322 21.75514,-5.37545c1.54226,0.36566 4.38983,2.22838 6.32792,4.13937c3.78795,3.73502 5.69971,12.50563 5.78463,26.53852c0.03899,6.44634 0.24839,6.89254 4.1227,8.78519c5.43861,2.65684 19.78195,4.13439 22.29188,2.29635c1.0361,-0.75875 4.71253,-2.58468 8.16986,-4.05763c5.43246,-2.31445 6.8367,-3.67588 10.34146,-10.02624c2.23044,-4.04149 4.39404,-8.76351 4.8079,-10.49344c0.79356,-3.31703 4.84537,-8.12538 6.84691,-8.12538c2.39166,0 2.69147,-5.93944 0.56532,-11.19868c-2.00951,-4.97068 -2.01855,-5.57877 -0.12336,-8.31117c1.12463,-1.62142 2.0448,-3.79543 2.0448,-4.83111c0,-1.03567 1.62127,-2.41694 3.60283,-3.0695c5.39002,-1.775 7.45014,-7.85453 6.71681,-19.82158c-0.39156,-6.38976 -0.14097,-9.71466 0.73222,-9.71466c0.73013,0 2.07434,-0.67117 2.98709,-1.49148c3.63746,-3.26906 18.1653,-9.56093 21.58784,-9.34951c5.50698,0.34018 10.2488,-5.02372 11.20858,-12.67903c0.50954,-4.06427 2.08921,-7.95456 4.66727,-11.49433c2.14339,-2.9429 4.47711,-7.07957 5.18592,-9.19258c2.05588,-6.1276 3.90165,-9.18062 5.55063,-9.18062c3.37668,0 7.29088,-4.67905 9.49521,-11.3506c2.77436,-8.39668 2.88161,-11.96566 0.47874,-15.93637c-2.84395,-4.69964 -3.11744,-7.30496 1.56985,-10.72428c3.95607,-2.88592 4.84295,-4.01582 7.32737,-10.1389c2.96184,-7.29972 1.82108,-10.57619 0.28885,-12.9645c-0.40853,-0.63679 0.01483,-0.49047 0.11529,-1.17494c0.11774,-0.80225 0.22889,-0.7003 0.47359,-0.9969c0.3194,-0.38711 2.93568,-1.93076 6.18465,-4.78903c5.58201,-4.91093 13.12307,-7.79163 15.99992,-6.11204c0.63134,0.36857 1.50278,0.12751 1.93657,-0.53565c0.4339,-0.66316 1.75735,-1.20574 2.94102,-1.20574c1.53468,0 2.55132,1.61643 3.54409,5.63535c1.22738,4.9692 1.10216,6.0216 -1.05958,8.90281c-1.34845,1.7971 -2.31899,4.46648 -2.1571,5.93196c0.16201,1.46546 -0.41633,4.05514 -1.28515,5.75484c-1.35786,2.65638 -1.21028,3.77435 1.05055,7.96088c1.44664,2.67878 2.63032,5.50753 2.63032,6.28612c0,0.77859 -2.82574,4.23809 -6.27941,7.68778c-5.06635,5.06054 -6.2794,7.07165 -6.2794,10.4108c0,2.27626 0.88728,4.97678 1.9716,6.00119c2.39233,2.2599 7.3714,3.56156 9.99116,2.61191c1.09175,-0.39574 2.84017,0.31736 4.04947,1.65165c1.29958,1.43375 3.69655,2.3481 6.15569,2.3481c3.80482,0 4.13926,0.36349 6.05083,6.57531c1.96521,6.38656 1.94411,6.70856 -0.73882,11.2181c-2.98373,5.01507 -2.23359,7.43276 2.77172,8.93348c1.31742,0.39502 2.76872,2.1508 3.22498,3.90172c0.45614,1.75093 1.49851,4.25125 2.31635,5.55628c0.81782,1.30503 2.24438,4.67806 3.17021,7.49564c1.30085,3.95907 3.27182,6.26163 8.6755,10.13545c6.76392,4.84901 7.00455,5.21589 7.37377,11.24453c0.32402,5.29383 0.8471,6.43237 3.47427,7.56316l3.09286,1.33117l-2.75138,2.76665c-1.51334,1.52165 -3.74277,2.76663 -4.95457,2.76663c-3.04074,0 -6.15017,3.20267 -6.15017,6.33447c0,1.43321 -1.37419,4.51625 -3.05381,6.85118c-1.67949,2.33492 -3.53317,5.99317 -4.11916,8.1294c-0.91366,3.33109 -1.68577,3.93815 -5.4234,4.26396c-2.39697,0.20894 -5.48832,0.63788 -6.86979,0.95316c-1.38146,0.31527 -3.22585,0.6141 -4.09869,0.66402c-0.87284,0.04993 -2.95031,2.9067 -4.61674,6.34838c-2.55395,5.27468 -3.97574,6.66861 -9.05051,8.8741c-3.93153,1.70856 -6.44769,2.21308 -7.25132,1.45393c-1.8366,-1.73485 -7.08732,-1.30719 -11.91705,0.97059c-4.41241,2.08098 -4.78441,2.53348 -8.21409,9.99209c-1.64746,3.58273 -2.99942,4.66042 -7.1805,5.72399c-2.83301,0.72063 -6.39155,1.01611 -7.9079,0.6566c-2.9144,-0.69101 -5.76349,2.05907 -9.83078,9.48939c-1.5956,2.91493 -3.67589,4.2054 -10.06582,6.24438c-7.38051,2.35507 -8.3582,2.4205 -11.684,0.78202c-8.03334,-3.95767 -12.58527,-1.81168 -27.70996,13.06371c-4.95546,4.87374 -9.55743,8.86137 -10.22666,8.86137c-1.8827,0 -2.75051,3.21946 -1.92231,7.13132c0.4777,2.25619 0.23681,3.54619 -0.66209,3.54619c-0.77708,0 -1.41286,-0.48165 -1.41286,-1.07032l0,0.00001z"
        strokeMiterlimit="4"
        stroke="#000000"
        fill="#e5e5e5"
    />
</svg>